<svg xmlns="http://www.w3.org/2000/svg" viewBox="0 0 512 512">
  <defs>
    <linearGradient id="gonr" x1="72" y1="88" x2="440" y2="424" gradientUnits="userSpaceOnUse">
      <stop stop-color="#f70a75"/>
      <stop offset=".52" stop-color="#ef2955"/>
      <stop offset="1" stop-color="#ff5a18"/>
    </linearGradient>
  </defs>
  <rect width="512" height="512" rx="112" fill="#fff"/>
  <circle cx="256" cy="256" r="176" fill="url(#gonr)"/>
  <path fill="#fff" d="M256 90c19 95 71 147 166 166-95 19-147 71-166 166-19-95-71-147-166-166 95-19 147-71 166-166Z"/>
  <path fill="#fff" d="M149 207c8 39 29 60 68 68-39 8-60 29-68 68-8-39-29-60-68-68 39-8 60-29 68-68ZM363 155c5 27 20 42 47 47-27 5-42 20-47 47-5-27-20-42-47-47 27-5 42-20 47-47Z" opacity=".95"/>
</svg>
